<?xml version="1.0" standalone="no"?><!DOCTYPE svg PUBLIC "-//W3C//DTD SVG 1.1//EN" "http://www.w3.org/Graphics/SVG/1.1/DTD/svg11.dtd"><svg t="1706850562924" class="icon" viewBox="0 0 1025 1024" version="1.1" xmlns="http://www.w3.org/2000/svg" p-id="2329" xmlns:xlink="http://www.w3.org/1999/xlink" width="200.1953125" height="200"><path d="M726.722339 47.496893 518.407553 47.496893 403.612042 248.951996 496.890907 248.951996 374.522499 497.575433 696.102189 209.821352 591.628257 209.821352Z" p-id="2330" fill="#fbc858"></path><path d="M478.611776 117.335838 403.612042 248.951996 496.890907 248.951996 374.522499 497.575433 618.049255 279.660296 536.879012 279.660296 594.993989 209.821352 591.628257 209.821352 668.591335 117.335838Z" p-id="2331" fill="#fbc858"></path><path d="M374.514485 509.595906c-2.54834 0-5.112708-0.809378-7.260365-2.444163-4.583807-3.485937-6.066332-9.720555-3.517992-14.881345l113.841887-231.297929-73.95796 0c-4.279288 0-8.23803-2.275876-10.393702-5.978182s-2.171699-8.270085-0.056096-11.988418L507.957756 41.550766c2.147658-3.758401 6.130441-6.074345 10.449797-6.074345l208.314786 0c4.663943 0 8.903163 2.700599 10.882534 6.915778 1.979371 4.223193 1.338279 9.207682-1.642798 12.797796L617.271931 197.80088l78.830258 0c4.984489 0 9.456105 3.077241 11.227121 7.733171s0.50486 9.920897-3.213473 13.246561l-321.587704 287.754081C380.260271 508.570159 377.391385 509.595906 374.514485 509.595906zM424.295268 236.931524l72.595639 0c4.159083 0 8.013648 2.147658 10.201374 5.665649 2.187726 3.526005 2.412108 7.933512 0.576983 11.659858L412.643423 447.329859l251.997183-225.488034-73.012349 0c-4.663943 0-8.903163-2.700599-10.882534-6.915778-1.979371-4.223193-1.338279-9.207682 1.642798-12.797796L701.070651 59.517366 525.395454 59.517366 424.295268 236.931524z" p-id="2332" fill="#fbc858"></path><path d="M906.348264 676.456089c0 165.690191-176.556698 300.039004-394.343616 300.039004-217.794932 0-394.343616-134.356826-394.343616-300.039004 0-165.722246 176.548684-364.292436 394.343616-364.292436C729.791566 312.163654 906.348264 510.741857 906.348264 676.456089z" p-id="2333" fill="#fbc858"></path><path d="M906.348264 676.456089c0 165.690191-176.556698 300.039004-394.343616 300.039004-217.794932 0-394.343616-134.356826-394.343616-300.039004 0-165.722246 176.548684-279.900706 394.343616-279.900706C729.791566 396.563397 906.348264 510.741857 906.348264 676.456089z" p-id="2334" fill="#fbc858"></path><path d="M595.979668 597.938364c0 11.163012-37.592024 13.166424-83.97502 13.166424s-83.97502-2.003412-83.97502-13.166424c0-11.179039 37.592024-40.364746 83.97502-40.364746S595.979668 586.759324 595.979668 597.938364z" p-id="2335" fill="#fbc858"></path><path d="M906.348264 676.456089c0 165.690191-176.556698 300.039004-394.343616 300.039004-217.794932 0-394.343616-134.356826-394.343616-300.039004 0-165.738273 50.173452 146.970309 394.343616 146.970309S906.348264 510.72583 906.348264 676.456089z" p-id="2336" fill="#fbc858"></path><path d="M512.004648 988.523579c-224.069619 0-406.364089-139.990421-406.364089-312.059476 0-170.450298 181.26071-376.312908 406.364089-376.312908S918.368737 506.013805 918.368737 676.456089C918.368737 848.533158 736.074266 988.523579 512.004648 988.523579zM512.004648 324.184126c-211.784696 0-382.323144 192.712213-382.323144 352.271963 0 158.814481 171.5081 288.018532 382.323144 288.018532S894.327792 835.278584 894.327792 676.456089C894.327792 516.896339 723.78133 324.184126 512.004648 324.184126z" p-id="2337" fill="#fbc858"></path><path d="M73.706171 378.829193c51.167144 84.471866 122.857241 134.132444 192.207353 142.731089 11.956363-86.178773-6.987901-186.173076-58.163059-270.644942C156.583321 166.419433 84.893224 116.758855 15.551126 108.192265 3.586749 194.338984 22.539027 294.357327 73.706171 378.829193z" p-id="2338" fill="#fbc858"></path><path d="M15.551126 108.192265c-11.956363 86.146719 6.987901 186.157049 58.163059 270.628915 51.167144 84.471866 122.857241 134.132444 192.207353 142.731089L15.551126 108.192265z" p-id="2339" fill="#fbc858"></path><path d="M277.1727 411.0681c-8.342208-58.772096-28.793038-116.310091-59.13271-166.395392-51.423581-84.89659-124.692367-138.988715-201.022366-148.412765-6.539137-0.809378-12.47725 3.766415-13.374779 10.273497-12.909987 92.974347 8.879122 194.491243 59.781816 278.514345 34.77122 57.425803 79.82395 101.148268 130.293907 126.439342 1.730948 0.865474 3.55806 1.27417 5.377158 1.27417 4.407507 0 8.646726-2.428135 10.754316-6.635301 2.973063-5.9301 0.576983-13.15841-5.361131-16.131474-46.407037-23.263621-88.069994-63.860763-120.493215-117.40796-14.913399-24.609914-27.126199-50.80653-36.598332-77.836565 48.883254-8.013648 105.43557 16.964893 98.680064-104.07325 18.73591 18.928237 36.085458 41.166111 51.39954 66.449171 28.680847 47.328607 48.001753 101.725251 55.895197 157.315929 0.937597 6.571192 7.043997 11.098903 13.591147 10.209388C273.534503 423.729665 278.102283 417.647306 277.1727 411.0681z" p-id="2340" fill="#fbc858"></path><path d="M950.295111 378.829193c-51.167144 84.471866-122.857241 134.132444-192.207353 142.731089-11.956363-86.178773 6.979888-186.173076 58.163059-270.644942 51.175158-84.487893 122.865255-134.148472 192.215367-142.707048C1020.414534 194.338984 1001.478283 294.357327 950.295111 378.829193z" p-id="2341" fill="#fbc858"></path><path d="M1008.466184 108.192265c11.94835 86.146719-6.987901 186.157049-58.171073 270.628915-51.167144 84.471866-122.857241 134.132444-192.207353 142.731089L1008.466184 108.192265z" p-id="2342" fill="#fbc858"></path><path d="M1020.366452 106.541453c-0.897529-6.515096-6.867697-11.074862-13.374779-10.273497-76.33 9.42405-149.606799 63.516176-201.03038 148.412765-30.347686 50.109342-50.798516 107.655351-59.124697 166.395392-0.929583 6.571192 3.638196 12.661564 10.209388 13.591147 6.667355 0.913556 12.661564-3.64621 13.591147-10.209388 7.869403-55.566637 27.206336-109.963281 55.887183-157.315929 15.314082-25.28306 32.66363-47.520934 51.39954-66.449171-6.763519 121.038143 49.79681 96.059602 98.688078 104.07325-9.472132 27.030036-21.684932 53.226652-36.598332 77.836565-32.439248 53.563225-74.102205 94.160367-120.493215 117.40796-5.938113 2.973063-8.334194 10.193361-5.361131 16.131474 2.107589 4.207165 6.346809 6.635301 10.754316 6.635301 1.811085 0 3.64621-0.408696 5.377158-1.27417 50.453929-25.28306 95.50666-69.005525 130.293907-126.439342C1011.479316 301.048724 1033.276439 199.531828 1020.366452 106.541453z" p-id="2343" fill="#fbc858"></path><path d="M263.565525 703.397975m-56.199715 0a7.013 7.013 0 1 0 112.39943 0 7.013 7.013 0 1 0-112.39943 0Z" p-id="2344" fill="#fbc858"></path><path d="M319.76524 703.397975c0 31.020832-25.162855 56.191701-56.199715 56.191701-31.044873 0-56.207729-25.170869-56.207729-56.191701" p-id="2345" fill="#fbc858"></path><path d="M760.435757 703.397975m-56.207729 0a7.014 7.014 0 1 0 112.415458 0 7.014 7.014 0 1 0-112.415458 0Z" p-id="2346" fill="#fbc858"></path><path d="M816.635472 703.397975c0 31.020832-25.170869 56.191701-56.207729 56.191701-31.03686 0-56.207729-25.170869-56.207729-56.191701" p-id="2347" fill="#fbc858"></path><path d="M589.232176 643.343695c-6.635301 0-12.020472 5.385172-12.020472 12.020472 0 11.435476-9.311859 20.739322-20.763363 20.739322l-11.667872 0c-11.44349 0-20.755349-9.303846-20.755349-20.739322l0-11.659858c0-0.584996-0.08815-1.145952-0.168287-1.706907l24.922446-12.469237c4.984489-2.500258 7.604952-8.093785 6.322768-13.519025s-6.130441-9.255764-11.699926-9.255764l-62.802961 0c-5.569486 0-10.417743 3.838538-11.699926 9.255764s1.338279 11.018766 6.322768 13.519025l24.914432 12.469237c-0.080136 0.560955-0.168287 1.121911-0.168287 1.706907l0 11.659858c0 11.435476-9.303846 20.739322-20.747335 20.739322l-11.675885 0c-11.451503 0-20.763363-9.303846-20.763363-20.739322 0-6.635301-5.385172-12.020472-12.020472-12.020472s-12.020472 5.385172-12.020472 12.020472c0 24.69005 20.09823 44.780266 44.804307 44.780266l11.675885 0c12.950056 0 24.593886-5.553458 32.775821-14.360458 8.181935 8.806999 19.833779 14.360458 32.783835 14.360458l11.667872 0c24.706078 0 44.804307-20.090216 44.804307-44.780266C601.252648 648.728866 595.87549 643.343695 589.232176 643.343695z" p-id="2348" fill="#fbc858"></path><path d="M382.488065 562.109342c0 35.652721-28.889202 64.517882-64.533909 64.517882-35.62868 0-64.517882-28.865161-64.517882-64.517882 0-35.636694 28.881188-64.533909 64.517882-64.533909C353.590849 497.575433 382.488065 526.472649 382.488065 562.109342z" p-id="2349" fill="#fbc858"></path><path d="M285.867508 541.137625m-26.29278 0a3.281 3.281 0 1 0 52.58556 0 3.281 3.281 0 1 0-52.58556 0Z" p-id="2350" fill="#fbc858"></path><path d="M317.954156 485.554961c-26.004289 0-48.987432 13.062247-62.827002 32.944108-0.841433 1.145952-1.578689 2.347999-2.291903 3.582101-7.188242 11.659858-11.419449 25.347169-11.419449 40.028173 0 42.207885 34.330469 76.538354 76.538354 76.538354 42.215899 0 76.554382-34.330469 76.554382-76.538354C394.508537 519.893444 360.162041 485.554961 317.954156 485.554961zM317.954156 614.606752c-21.805137 0-40.533033-13.366765-48.458531-32.335071 5.457294-0.144246 12.108622-1.618757 19.553302-3.157377 2.852859-0.240409 5.60154-0.777324 8.246044-1.610743 6.483041-1.161979 13.422861-2.075535 20.651172-2.075535 19.336933 0 36.646413 6.52311 48.474558 6.843656C358.503216 601.239987 339.767306 614.606752 317.954156 614.606752z" p-id="2351" fill="#fbc858"></path><path d="M285.867508 541.137625m-14.25628 0a1.779 1.779 0 1 0 28.51256 0 1.779 1.779 0 1 0-28.51256 0Z" p-id="2352" fill="#fbc858"></path><path d="M770.556995 562.109342c0 35.652721-28.881188 64.517882-64.517882 64.517882-35.636694 0-64.525896-28.865161-64.525896-64.517882 0-35.636694 28.881188-64.533909 64.525896-64.533909C741.675807 497.575433 770.556995 526.472649 770.556995 562.109342z" p-id="2353" fill="#fbc858"></path><path d="M673.952465 541.137625m-26.284766 0a3.28 3.28 0 1 0 52.569532 0 3.28 3.28 0 1 0-52.569532 0Z" p-id="2354" fill="#fbc858"></path><path d="M706.047127 485.554961c-25.988261 0-48.963391 13.054233-62.802961 32.920067-0.85746 1.161979-1.610743 2.388067-2.339985 3.64621-7.180229 11.651845-11.403421 25.323128-11.403421 39.988105 0 42.207885 34.338483 76.538354 76.546368 76.538354s76.538354-34.330469 76.538354-76.538354C782.577467 519.893444 748.246998 485.554961 706.047127 485.554961zM706.047127 614.606752c-21.805137 0-40.541046-13.366765-48.466545-32.335071 5.521404-0.152259 12.236841-1.610743 19.801725-3.181418 2.684572-0.240409 5.272981-0.745269 7.773239-1.51458 6.563178-1.18602 13.567106-2.147658 20.891581-2.147658 19.336933 0 36.630386 6.52311 48.458531 6.843656C746.580159 601.239987 727.852263 614.606752 706.047127 614.606752z" p-id="2355" fill="#fbc858"></path><path d="M673.960479 541.137625m-14.25628 0a1.779 1.779 0 1 0 28.51256 0 1.779 1.779 0 1 0-28.51256 0Z" p-id="2356" fill="#fbc858"></path></svg>